<?xml version="1.0" encoding="UTF-8" standalone="no"?>
<svg
   xmlns:dc="http://purl.org/dc/elements/1.1/"
   xmlns:cc="http://creativecommons.org/ns#"
   xmlns:rdf="http://www.w3.org/1999/02/22-rdf-syntax-ns#"
   xmlns:svg="http://www.w3.org/2000/svg"
   xmlns="http://www.w3.org/2000/svg"
   xmlns:sodipodi="http://sodipodi.sourceforge.net/DTD/sodipodi-0.dtd"
   xmlns:inkscape="http://www.inkscape.org/namespaces/inkscape"
   version="1.0"
   width="110.000000pt"
   height="96.000000pt"
   viewBox="0 0 110.000000 96.000000"
   preserveAspectRatio="xMidYMid meet"
   id="svg36"
   sodipodi:docname="nightingale.svg"
   inkscape:version="1.0.2 (e86c870879, 2021-01-15, custom)">
  <defs
     id="defs40" />
  <sodipodi:namedview
     pagecolor="#ffffff"
     bordercolor="#666666"
     borderopacity="1"
     objecttolerance="10"
     gridtolerance="10"
     guidetolerance="10"
     inkscape:pageopacity="0"
     inkscape:pageshadow="2"
     inkscape:window-width="1920"
     inkscape:window-height="989"
     id="namedview38"
     showgrid="false"
     inkscape:zoom="6.421875"
     inkscape:cx="73.333333"
     inkscape:cy="64"
     inkscape:window-x="-8"
     inkscape:window-y="-8"
     inkscape:window-maximized="1"
     inkscape:current-layer="svg36" />
  <metadata
     id="metadata2">
Created by potrace 1.10, written by Peter Selinger 2001-2011
<rdf:RDF>
  <cc:Work
     rdf:about="">
    <dc:format>image/svg+xml</dc:format>
    <dc:type
       rdf:resource="http://purl.org/dc/dcmitype/StillImage" />
    <dc:title></dc:title>
  </cc:Work>
</rdf:RDF>
</metadata>
  <g
     transform="translate(0.000000,96.000000) scale(0.100000,-0.100000)"
     fill="#000000"
     stroke="none"
     id="g34">
    <path
       d="M285 836 c-18 -38 -17 -77 2 -83 8 -3 10 6 7 29 -4 21 0 40 10 53 15 20 15 20 30 0 19 -25 21 -69 4 -62 -7 2 -12 11 -10 20 1 8 -2 18 -8 22 -6 4 -10 -8 -10 -29 0 -29 4 -36 19 -36 37 0 46 37 20 85 -22 43 -44 43 -64 1z"
       id="path4" />
    <path
       d="M415 845 c-11 -13 -20 -30 -20 -37 0 -7 -4 -16 -10 -20 -6 -5 -5 -15 3 -28 13 -22 8 -45 -9 -35 -5 4 -9 1 -9 -6 0 -7 -3 -10 -6 -6 -8 8 -65 -59 -63 -75 6 -45 1 -49 -36 -31 -38 18 -55 12 -35 -12 10 -12 15 -13 21 -4 5 9 13 8 29 -4 33 -23 50 -12 43 29 -5 28 -1 40 18 60 45 49 57 49 69 2 14 -49 1 -88 -29 -88 -19 0 -19 2 -5 35 16 40 17 45 6 45 -12 0 -43 -80 -36 -91 10 -16 51 -9 69 11 10 11 14 20 9 20 -5 0 -2 5 6 10 13 8 13 13 2 30 -7 11 -10 25 -7 30 3 5 1 11 -4 15 -5 3 -8 15 -6 27 3 12 0 27 -6 34 -13 16 -2 58 22 80 19 17 25 34 12 34 -5 -1 -17 -12 -28 -25z"
       id="path6" />
    <path
       d="M460 860 c0 -6 7 -24 15 -40 18 -34 11 -80 -12 -80 -11 0 -13 7 -8 29 3 16 2 32 -3 35 -5 3 -12 -11 -16 -32 -4 -28 -2 -40 11 -49 13 -10 14 -15 4 -27 -9 -10 -9 -20 -2 -33 11 -22 48 -53 61 -53 14 0 60 46 53 53 -3 4 -1 7 5 7 7 0 10 15 8 38 -3 33 -7 37 -35 40 -17 2 -31 -1 -31 -7 0 -6 -5 -11 -10 -11 -13 0 -9 32 4 42 6 4 4 13 -3 22 -8 9 -11 16 -7 16 4 0 0 14 -9 30 -16 31 -25 38 -25 20z m100 -158 c0 -35 -26 -72 -51 -72 -26 0 -24 12 6 40 14 13 23 26 20 28 -3 3 -16 -5 -30 -18 -17 -16 -29 -20 -35 -14 -25 25 16 62 68 63 18 1 22 -4 22 -27z"
       id="path8" />
    <path
       d="M184 765 c-9 -14 -14 -31 -11 -40 8 -19 -8 -28 -21 -12 -12 14 -50 15 -70 3 -17 -10 -15 -30 7 -54 24 -29 49 -28 63 3 14 32 26 32 26 1 0 -18 -7 -26 -27 -31 -26 -6 -71 -42 -71 -56 0 -6 38 -20 62 -23 3 -1 10 -4 13 -8 4 -4 15 -3 24 1 14 8 17 3 17 -30 1 -22 4 -43 8 -46 4 -4 29 -6 56 -6 48 1 65 -9 36 -20 -8 -3 -20 -16 -27 -29 -11 -21 -9 -21 18 5 35 32 43 34 43 7 0 -22 -28 -40 -61 -40 -19 0 -21 4 -15 30 3 17 2 30 -3 30 -12 0 -21 -26 -21 -57 0 -24 2 -25 44 -21 54 6 77 26 69 59 -10 39 -21 46 -78 54 -49 6 -55 9 -55 29 0 29 24 50 46 42 12 -5 15 -14 10 -37 -5 -27 -4 -30 9 -19 8 7 12 17 9 22 -4 6 0 14 7 19 11 7 10 11 -6 23 -18 14 -33 13 -72 -1 -9 -4 -13 6 -13 30 0 31 4 36 29 42 36 8 53 27 57 62 2 19 -7 35 -33 60 -21 18 -40 33 -45 33 -4 0 -15 -11 -24 -25z m59 -20 c15 -14 27 -36 27 -50 0 -38 -17 -38 -30 0 -6 19 -16 35 -22 35 -6 0 -7 -7 -3 -17 19 -45 18 -63 -4 -63 -25 0 -30 31 -16 98 7 28 14 28 48 -3z m-96 -52 c3 -7 -4 -10 -19 -6 -23 5 -23 5 -3 -11 20 -17 20 -17 0 -14 -12 2 -21 12 -23 26 -3 20 0 23 19 20 12 -2 24 -8 26 -15z m43 -77 c0 -9 -7 -13 -20 -11 -11 2 -22 0 -25 -6 -4 -5 5 -9 19 -9 27 0 36 -15 14 -23 -17 -5 -68 12 -68 23 0 13 42 40 62 40 10 0 18 -6 18 -14z"
       id="path10" />
    <path
       d="M940 779 c0 -6 -7 -9 -15 -5 -12 4 -15 -4 -15 -45 0 -46 -2 -50 -20 -44 -16 5 -20 2 -20 -19 0 -21 4 -25 30 -24 28 1 30 4 30 40 0 41 18 68 44 68 11 0 16 -9 16 -31 0 -24 -4 -30 -15 -25 -11 4 -15 -2 -15 -20 0 -22 4 -25 28 -22 26 3 27 5 30 68 l3 65 -41 2 c-23 2 -40 -2 -40 -8z m70 -16 c0 -5 -18 -8 -40 -8 -23 -1 -34 2 -27 7 15 10 67 10 67 1z"
       id="path12" />
    <path
       d="M660 715 c-7 -8 -10 -21 -7 -28 3 -8 -3 -21 -14 -30 -10 -9 -19 -23 -19 -31 0 -24 -20 -29 -40 -11 -17 16 -20 16 -26 2 -13 -35 55 -114 114 -132 12 -3 22 -10 22 -15 0 -8 -67 -25 -87 -21 -7 1 -13 -2 -13 -7 0 -14 -71 -43 -91 -37 -14 5 -17 2 -13 -9 4 -9 0 -18 -9 -22 -9 -3 -18 -13 -21 -21 -6 -14 -3 -14 16 1 55 40 86 57 138 77 67 25 157 38 146 21 -5 -8 0 -12 13 -12 14 0 21 6 21 19 0 14 -5 18 -20 14 -11 -3 -26 0 -33 6 -8 6 -16 9 -19 6 -12 -13 -114 55 -137 91 -16 25 -18 34 -7 25 13 -11 22 -11 41 -3 14 7 25 18 25 25 0 8 9 22 20 32 14 13 17 22 10 30 -22 27 20 23 79 -6 l61 -31 0 -49 c0 -50 -23 -88 -61 -101 -8 -3 -12 -8 -9 -11 10 -11 55 18 66 43 16 34 26 142 13 134 -6 -3 -18 1 -27 9 -21 19 -82 50 -103 54 -10 1 -22 -4 -29 -12z"
       id="path14" />
    <path
       d="M750 645 c0 -8 5 -15 10 -15 6 0 10 7 10 15 0 8 -4 15 -10 15 -5 0 -10 -7 -10 -15z"
       id="path16" />
    <path
       d="M460 599 c0 -7 -3 -9 -7 -6 -10 10 -43 -23 -43 -43 0 -20 31 -50 51 -50 8 1 24 9 36 19 18 15 22 26 17 50 -4 17 -10 31 -14 31 -5 0 -15 3 -24 6 -10 4 -16 1 -16 -7z m40 -33 c0 -14 -7 -32 -16 -40 -21 -22 -40 -9 -20 13 26 28 18 37 -9 11 -25 -23 -25 -23 -25 -2 0 22 24 41 53 42 11 0 17 -8 17 -24z"
       id="path18" />
    <path
       d="M355 537 c22 -17 59 -49 81 -72 41 -39 84 -57 84 -35 0 6 -4 9 -9 5 -5 -3 -12 -1 -15 4 -4 5 3 13 15 16 33 11 16 16 -19 6 -18 -6 -32 -6 -32 -1 0 12 -121 110 -135 110 -5 -1 8 -15 30 -33z"
       id="path20" />
    <path
       d="M230 528 c-12 -22 -12 -22 6 -6 10 10 15 20 12 24 -4 3 -12 -5 -18 -18z"
       id="path22" />
    <path
       d="M300 532 c0 -5 9 -17 19 -26 11 -10 29 -42 41 -72 12 -30 25 -54 29 -54 3 0 4 -22 3 -50 -3 -32 0 -50 7 -50 6 0 11 20 11 48 0 66 -70 212 -102 212 -4 0 -8 -4 -8 -8z"
       id="path24" />
    <path
       d="M86 508 c-9 -12 -16 -33 -16 -45 0 -20 5 -23 38 -22 32 0 92 16 68 18 -5 1 -3 8 4 16 9 10 9 15 1 15 -6 0 -11 9 -11 20 0 30 -63 28 -84 -2z m39 -12 c-34 -28 -41 -27 -25 3 6 12 21 21 33 21 21 0 20 -2 -8 -24z m34 -22 c-6 -8 -21 -14 -33 -14 -21 1 -21 1 3 20 25 22 49 17 30 -6z"
       id="path26" />
    <path
       d="M535 505 c-5 -2 -22 -6 -37 -9 -16 -4 -28 -12 -28 -18 0 -9 3 -9 12 0 7 7 29 12 51 12 23 0 36 4 32 10 -6 10 -12 11 -30 5z"
       id="path28" />
    <path
       d="M542 460 c-18 -30 -14 -36 8 -12 21 22 25 32 12 32 -4 0 -13 -9 -20 -20z"
       id="path30" />
    <path
       d="M649 427 c-37 -12 -83 -35 -103 -50 -57 -44 -70 -78 -74 -199 -2 -61 -8 -105 -13 -102 -5 3 -35 5 -65 5 -63 0 -62 -5 -20 94 14 33 26 68 26 78 0 30 -17 19 -24 -15 -3 -18 -17 -57 -31 -86 -42 -90 -40 -93 65 -91 59 1 87 5 83 12 -10 16 -9 187 1 187 4 0 6 9 3 20 -3 11 -1 20 5 20 5 0 7 4 4 8 -15 25 110 103 187 117 20 4 37 11 37 16 0 13 -6 11 -81 -14z"
       id="path32" />
  </g>
</svg>
